<svg class="svg-icon" style="width: 1em; height: 1em;vertical-align: middle;fill: currentColor;overflow: hidden;" viewBox="0 0 1024 1024" version="1.1" xmlns="http://www.w3.org/2000/svg"><path d="M511.5 966.9c-61.6 0-121.4-12.1-177.7-35.9-54.4-23-103.2-55.9-145.1-97.8-41.9-41.9-74.9-90.8-97.8-145.1-24-56.3-36.1-116.1-36.1-177.8s12.1-121.4 35.9-177.7c23-54.4 55.9-103.2 97.8-145.1s90.8-74.9 145.1-97.8c56.4-23.9 116.2-36 177.9-36s121.4 12.1 177.7 35.9c54.4 23 103.2 55.9 145.1 97.8 41.9 41.9 74.9 90.8 97.8 145.1 23.8 56.3 35.9 116.1 35.9 177.7s-12 121.6-35.8 177.9c-23 54.4-55.9 103.2-97.8 145.1-41.9 41.9-90.8 74.9-145.1 97.8-56.4 23.9-116.2 35.9-177.8 35.9z m0-893.2c-240.7 0-436.6 195.9-436.6 436.6 0 240.7 195.9 436.6 436.6 436.6 240.7 0 436.6-195.9 436.6-436.6 0-240.7-195.9-436.6-436.6-436.6z"  /></svg>